PathFileType	4	(X/Y/Z)	Patient4_TMGait_0pt7_01_right_09.trc.trc
DataRate	CameraRate	NumFrames	NumMarkers	Units	OrigDataRate	OrigDataStartFrame	OrigNumFrames
90.322580645161	90.322580645161	5	33	mm	90.322580645161	71	       141
Frame#	Time	Sacral			L.Shoulder			Chest			R.Shoulder			Neck			R.ASIS			L.ASIS			R.Thigh.Superior			R.Thigh.Lateral			R.Thigh.Inferior			R.Patella			L.Thigh.Superior			L.Thigh.Lateral			L.Thigh.Inferior			L.Patella			L.Shank.Superior			L.Shank.Lateral			L.Shank.Inferior			R.Shank.Superior			R.Shank.Lateral			R.Shank.Inferior			R.Heel			R.Midfoot.Superior			R.Midfoot.Lateral			R.Toe			L.Heel			L.Midfoot.Lateral			L.Midfoot.Superior			L.Toe			L.Elbow			L.Wrist			R.Elbow			R.Wrist			
		X1	Y1	Z1	X2	Y2	Z2	X3	Y3	Z3	X4	Y4	Z4	X5	Y5	Z5	X6	Y6	Z6	X7	Y7	Z7	X8	Y8	Z8	X9	Y9	Z9	X10	Y10	Z10	X11	Y11	Z11	X12	Y12	Z12	X13	Y13	Z13	X14	Y14	Z14	X15	Y15	Z15	X16	Y16	Z16	X17	Y17	Z17	X18	Y18	Z18	X19	Y19	Z19	X20	Y20	Z20	X21	Y21	Z21	X22	Y22	Z22	X23	Y23	Z23	X24	Y24	Z24	X25	Y25	Z25	X26	Y26	Z26	X27	Y27	Z27	X28	Y28	Z28	X29	Y29	Z29	X30	Y30	Z30	X31	Y31	Z31	X32	Y32	Z32	X33	Y33	Z33	

71	10.585000000000	797.483174301108	999.558879165705	516.198946638561	956.956924210089	1418.167410210095	308.516218573487	1081.606838509948	1346.188214823877	452.394737323337	1031.220834357497	1428.206836667296	634.180172199121	984.401170144926	1481.145803598088	462.695958691948	1029.810921024123	930.109759442024	610.146350775756	992.040158133683	945.569699702885	336.377940615188	1019.048294837439	715.954592001054	585.249215399411	914.212461066932	626.075197965767	652.479447408003	966.501980082326	558.637419349258	569.055374020204	943.848851456410	474.437922777024	573.383322370161	1072.902222178224	771.187991238648	377.507922820193	1033.438549206300	641.081460886955	296.218325409926	1135.219906940051	585.719173146638	362.370072298660	1164.019996388578	520.795355618686	359.688590209114	1149.501328752195	447.190738569779	347.454279806935	1087.762160510082	315.842305136508	295.630490401757	1176.599054824262	219.393009208353	352.244522962186	903.853594804820	391.396136469836	582.942477824280	821.333743547754	299.005250797097	648.298487748106	844.181168274582	199.864516377097	582.756659578328	689.372084216109	43.801280378879	558.036128481949	862.079467451002	96.492056250248	590.758083783982	773.423297127591	37.019945072732	631.419207800322	981.719059571938	40.913093053552	618.017849544948	1099.410001283624	39.423895303862	391.726459802299	1172.192551989370	45.853659511310	310.592731296566	1241.447073970418	123.302998663981	331.339844725941	1374.975260126148	96.660537992373	303.791266058507	785.294699058984	1107.982973745422	231.547590066662	715.033169792047	860.054797684559	252.397981448409	1210.606753267210	1146.675552024110	738.929042107250	1422.642734014381	1248.611969404254	647.113787319650	
72	10.596071428571	798.879044645327	997.637354496015	513.686118863379	956.958591864920	1416.595203602629	306.298408863708	1081.828727993654	1344.978472897362	450.143511063288	1031.031167849292	1426.875159206875	631.818131289030	984.152994833944	1479.578048719472	460.521931842961	1031.025723609268	928.348010706466	608.438819379973	994.174989659446	943.521618996540	334.463602010873	1019.331321453890	713.965928976555	584.036300045190	913.589454062301	624.655526397500	651.031999140432	965.714912268877	556.674850851934	567.882976278432	942.171268519171	472.070277399006	572.010293219172	1075.365245546520	769.061696564526	375.980426601350	1034.103406072954	638.408101966043	296.105962548405	1136.454974263633	583.328109589150	361.344211981839	1163.926490235900	517.289866913603	359.518534947996	1148.694982815362	443.436938477886	347.474251168253	1084.879994331918	312.956317204869	296.083603267487	1172.062787912145	215.395948925675	353.072124865198	900.898500165116	389.538853585487	581.806915538972	817.130526832330	298.552762125187	647.679564901793	838.172148626104	198.947019780995	582.297703525866	681.571457809187	43.989147198861	558.155151795504	854.394316416476	96.425257237663	590.707078207741	765.657162513943	37.039002928365	631.493599993380	973.943220019163	40.662189709822	618.130403193023	1091.196391739131	38.527801375764	393.237246787613	1163.506655724031	43.076984488287	311.466490808189	1235.273694842640	117.864818471462	332.349844919790	1367.860399162775	86.940743531387	303.608415245997	781.468332023116	1109.058669248813	231.677185062715	706.883968995978	862.495738979289	253.795480991390	1215.739892011535	1149.681351346259	734.981198698645	1423.339299542097	1258.862792314872	642.373457987070	
73	10.607142857143	800.260188103683	995.706729617979	511.049091536005	957.058071366306	1414.947704373718	303.906559049400	1082.107485187186	1343.795619066686	447.827494864410	1030.756841074573	1425.592884713583	629.396404881890	983.963019650011	1478.056093846491	458.151225885710	1032.286170184121	926.585957333361	606.696005937493	996.398287427182	941.606065111256	332.570790679170	1019.976616628805	712.027459244756	582.787015584186	913.383026708941	623.177903389152	649.416830953488	965.536864637171	554.676598740924	566.611839161466	941.162902407351	469.506748397952	570.567654931208	1078.033977027430	767.049447362290	374.335161711781	1034.991267099952	636.017328511304	295.795014070450	1137.880021358443	581.118299243936	360.267748872616	1163.958904678689	513.953807846253	359.312629618178	1148.007840913547	439.866981260341	347.430410958651	1082.180763593633	310.345733434670	296.151399528681	1167.361734682086	211.562927257459	353.760688364484	898.429346368094	387.593046778104	580.563408947984	813.255767207765	298.187495898293	646.965817624462	832.363152315462	198.086294627527	581.817099256866	673.791829478272	44.443637161397	558.313945743994	846.808345524304	96.389716910659	590.667864780246	757.929158623552	37.184754701451	631.584017296311	966.219359157557	40.343214522863	618.267933753001	1082.350393213907	37.898461999327	394.227692980832	1154.417784296279	40.612327347471	312.043905034711	1228.682008234736	112.632082127443	333.378386453406	1360.356134712401	77.331797347136	303.807343134735	778.612624457291	1109.496005264670	231.622739069177	699.894704644689	864.355416936213	254.876897470654	1220.019842627656	1152.222479251105	731.284404357762	1423.272428451824	1267.850262714377	637.805412444151	
74	10.618214285714	801.597127648464	993.859211575039	508.328275344606	957.260547014026	1413.305105872548	301.370153034977	1082.445178036736	1342.701031554293	445.468230901217	1030.439944842682	1424.434528886394	626.935684227737	983.861464557045	1476.658680908920	455.603450908848	1033.561413904919	924.905462431891	604.903479069970	998.638901456020	939.939250193372	330.701478859014	1020.964491227733	710.223399104745	581.457180065727	913.623411651723	621.699346687864	647.618727252316	966.010571353499	552.710472432233	565.226181905525	940.911034162002	466.786913733891	569.088993842353	1080.800492013775	765.270665800351	372.580853934013	1036.111939274293	634.053485933062	295.204506510829	1139.433917212623	579.211227041298	359.123368974372	1164.131772783733	510.986047556310	358.994225290606	1147.498349132033	436.666980667075	347.253135842678	1079.816611261991	308.141344465234	295.815498112553	1162.728598768315	208.105659356128	354.265688690812	896.503062635920	385.623737691748	579.236783556800	809.743792448405	297.998178521207	646.162341056415	826.803350835308	197.370677204132	581.334526725878	666.057525322771	45.307622743398	558.516991548126	839.376585187894	96.412882666059	590.657890834985	750.257007499559	37.530435719831	631.690904067238	958.556743885956	39.968055605724	618.422093536265	1073.347516985938	37.538554461554	394.767626472781	1145.353392746069	38.587430512651	312.359602234404	1221.928982527743	107.938648277420	334.356051962422	1352.759264128281	68.504062219825	304.268791258705	776.746805332725	1109.310980052856	231.326311082295	694.176438051038	865.592505080980	255.571080944342	1223.428787202744	1154.221696143401	727.867630915961	1422.502889392830	1275.525095805408	633.436678848498	
75	10.629285714286	802.865002044231	992.191947173186	505.563525257359	957.563371752131	1411.761871340106	298.729151241202	1082.838382501811	1341.761062413301	443.088506607364	1030.127589265024	1423.477050166348	624.456874160581	983.871562972195	1475.466864974890	452.913217243514	1034.816771212736	923.398240993068	603.040245191150	1000.825588299290	938.628689511448	328.838516280689	1022.270139407245	708.646410522798	579.993573484676	914.352499101478	620.280856705336	645.632110378068	967.186488114865	550.853410192918	563.715414154685	941.516106426019	463.964041192767	567.622697525327	1083.560370512639	763.851225393840	370.723620771178	1037.462941236711	632.627924278643	294.288103546303	1141.050251959311	577.712924594845	357.894974814429	1164.445864216244	508.539711107097	358.500091061139	1147.182028617730	433.967115319381	346.897970025070	1077.833569985240	306.441372829020	295.097761788505	1158.270493952293	205.169400090426	354.563440661833	895.194628739892	383.703056800661	577.867537675428	806.648872735332	298.082260273716	645.280136138680	821.561708586264	196.896977944156	580.874289455176	658.408177278133	46.746392374489	558.764307659370	832.166007411762	96.524806532287	590.695673073204	742.665513693972	38.164533090478	631.812737761573	950.960738200618	39.555657607515	618.579911553085	1064.504880091457	37.417305186617	394.948795207108	1136.573981272104	37.063712433849	312.459513111520	1215.141956053671	104.023362240655	335.217307125107	1345.231539873990	60.974300317769	304.855174831198	775.880099078993	1108.554187313663	230.738177022264	689.845220926531	866.185954534422	255.812100881024	1225.948538831683	1155.616577015209	724.751548748839	1421.099494499141	1281.835496410466	629.295945071203	
